Coordinates
version=1
nRows=16
nColumns=36
inDegrees=yes

Units are S.I. units (second, meters, Newtons, ...)
If the header above contains a line with 'inDegrees', this indicates whether rotational values are in degrees (yes) or radians (no).

endheader
time	pelvis_tilt	pelvis_list	pelvis_rotation	pelvis_tx	pelvis_ty	pelvis_tz	hip_flexion_r	hip_adduction_r	hip_rotation_r	knee_angle_r	knee_angle_r_beta	ankle_angle_r	subtalar_angle_r	mtp_angle_r	hip_flexion_l	hip_adduction_l	hip_rotation_l	knee_angle_l	knee_angle_l_beta	ankle_angle_l	subtalar_angle_l	mtp_angle_l	lumbar_extension	lumbar_bending	lumbar_rotation	arm_flex_r	arm_add_r	arm_rot_r	elbow_flex_r	pro_sup_r	arm_flex_l	arm_add_l	arm_rot_l	elbow_flex_l	pro_sup_l
      1.76666670	      2.11584834	     -9.25240724	      7.67596841	      0.72638677	      1.01697532	     -0.12828942	     36.62057148	      3.35938005	      4.92806690	     16.15111675	      0.28189017	     -8.96552985	     -0.71073049	     -7.49977336	     10.56758354	     -1.06122650	     -1.77644228	     21.52302710	      0.37564769	      0.92441233	     -4.25672325	     -7.49977336	    -26.23157883	      2.39224610	      5.09599682	     43.48864918	     15.04407891	     69.50650819	    118.93719150	     92.78791851	     54.16647628	      9.53969667	     73.11300709	    130.72944304	     73.35754140
      1.78333330	      2.12957029	     -9.00918318	      7.88726768	      0.72668694	      1.01695619	     -0.12820242	     36.60031513	      3.08163799	      5.01335263	     16.27089890	      0.28398076	     -8.85109153	     -0.72165255	     -7.49978874	     10.75436545	     -0.77707360	     -1.64267727	     21.66196057	      0.37807253	      0.61422121	     -3.87210600	     -7.49978874	    -26.50524176	      2.04417611	      4.97972296	     43.66200881	     15.17985484	     69.63736392	    118.85809706	     91.72327622	     54.41899517	      9.60737327	     73.33552409	    130.87168307	     72.55800152
      1.80000000	      2.04331512	     -8.88783153	      8.21029381	      0.73124665	      1.01717813	     -0.12531535	     36.33379937	      2.95742795	      5.11206339	     16.12764629	      0.28148053	     -8.70525984	     -0.76085032	     -7.49978940	     10.76423330	     -0.74738595	     -1.37815020	     21.49386633	      0.37513874	      0.43869067	     -3.55459477	     -7.49978940	    -26.46639046	      1.71726565	      4.95634973	     43.62951176	     15.22776944	     69.53832095	    118.78969443	     91.74460941	     54.37666573	      9.63671176	     73.48433864	    130.87667648	     72.58735251
      1.81666670	      2.10709693	     -8.78778052	      8.23973880	      0.73127794	      1.01528118	     -0.12531287	     36.08401651	      2.98161141	      5.41746102	     16.31090929	      0.28467907	     -8.04722445	     -0.84621509	     -7.49981188	     10.52101694	     -0.74213361	     -1.50015475	     21.27757466	      0.37136373	      0.48179342	     -2.90293836	     -7.49981188	    -26.63248439	      1.39206619	      4.91299354	     43.55570538	     15.38580384	     69.41023620	    118.82397735	     90.24557509	     54.57210833	      9.53329497	     74.03561281	    130.88083461	     72.03161938
      1.83333330	      2.13154998	     -8.75568298	      8.40001773	      0.73083738	      1.01290771	     -0.12519347	     36.11269078	      2.95336347	      5.51271260	     16.68744999	      0.29125095	     -7.40477446	     -0.58913928	     -7.49983090	     10.81266816	     -0.84249913	     -1.70933326	     21.69753803	      0.37869348	      0.49683299	     -2.35723115	     -7.49983090	    -26.77840534	      1.14667082	      4.90156219	     43.44690561	     15.43351898	     69.62537467	    118.99809316	     89.49107737	     54.79199879	      9.57040843	     74.53428435	    130.81232202	     71.78136331
      1.85000000	      2.12622676	     -8.74133658	      8.61703213	      0.73048283	      1.01355953	     -0.12528686	     36.15966277	      2.88699524	      5.67087060	     16.90204677	      0.29499637	     -7.02351898	     -0.64423961	     -7.49985020	     11.01568431	     -0.89804204	     -1.89037172	     21.96501586	      0.38336185	      0.46021934	     -1.82468593	     -7.49985020	    -26.97399245	      0.95743173	      4.92359250	     43.34806568	     15.34933234	     69.90070900	    119.19898835	     88.75404157	     55.07669701	      9.72679886	     75.08048639	    130.73092439	     71.14831052
      1.86666670	      2.28673705	     -8.65875041	      8.91830945	      0.73006605	      1.01345040	     -0.12554905	     36.09172616	      2.67981882	      5.55431392	     17.14602800	      0.29925464	     -6.63273302	     -0.66751851	     -7.49989246	     11.07730433	     -0.94684319	     -2.15156159	     22.31799581	      0.38952251	      0.25887596	     -1.93764945	     -7.49989246	    -27.25192279	      0.70390659	      5.00701112	     43.24827520	     15.14551281	     69.41281519	    119.33539030	     93.13492188	     55.69672744	     10.00726911	     75.35539188	    130.46466450	     72.42139513
      1.88333330	      2.38223291	     -8.63118188	      9.35465094	      0.72972378	      1.01368142	     -0.12571343	     35.89202215	      2.50787770	      5.55541390	     17.06107269	      0.29777189	     -6.42045029	     -0.72348294	     -7.49989401	     11.10642181	     -0.93681236	     -2.13256213	     22.56303690	      0.39379928	      0.22199088	     -1.95167405	     -7.49989401	    -27.46455384	      0.71798033	      4.83493820	     43.47900175	     15.07442388	     69.39174888	    119.18079324	     92.86102195	     55.90209146	     10.08646680	     75.59592478	    130.54920613	     71.93918463
      1.90000000	      2.52883178	     -8.57125271	      9.40141772	      0.72956556	      1.01369375	     -0.12600190	     35.89365223	      2.52679898	      5.60966933	     17.37001755	      0.30316400	     -6.29927501	     -1.07636801	     -7.49989695	     10.98349698	     -0.89218434	     -2.15193334	     22.72269547	      0.39658585	      0.58376868	     -1.94391265	     -7.49989695	    -27.84394062	      0.56440742	      4.93764017	     43.59256540	     15.04139286	     69.12881058	    119.05058723	     92.51290666	     56.38208521	     10.24699105	     75.77877443	    130.47476498	     71.63069842
      1.91666670	      2.49391943	     -8.54904481	      9.35328234	      0.72959812	      1.01355138	     -0.12588604	     36.02626608	      2.66011403	      5.57307920	     17.56595742	      0.30658379	     -6.17608184	     -1.19668034	     -7.49990224	     10.96074908	     -0.86717783	     -2.27422130	     22.71062831	      0.39637524	      0.70322794	     -1.90463376	     -7.49990224	    -28.14201588	      0.44875767	      4.91082637	     43.54956615	     15.08209801	     69.11048634	    118.82826641	     91.75427821	     56.50299538	      9.97589268	     75.87606452	    130.60927702	     71.03954321
      1.93333330	      2.36617273	     -8.59041296	      9.52045362	      0.72447068	      1.01246821	     -0.12356414	     36.48553627	      2.77698182	      5.50642326	     17.81681551	      0.31096209	     -6.31574924	     -1.14202651	     -7.49990339	     11.37802553	     -0.93180842	     -2.54448259	     23.06377423	      0.40253880	      1.15503289	     -2.19451169	     -7.49990339	    -28.52484417	      0.39943055	      4.89638207	     43.84291593	     14.97962540	     68.90024614	    118.74918593	     91.90816102	     57.00343006	      9.88406088	     75.93066525	    130.58855783	     71.13688310
      1.95000000	      1.98729039	     -8.63679922	      9.63471560	      0.72500542	      1.00955604	     -0.12334620	     37.34864107	      2.84260310	      5.21628297	     18.23499822	      0.31826076	     -6.49558443	     -1.10294196	     -7.49992052	     12.47312636	     -1.08043783	     -3.00541331	     24.20739795	      0.42249880	      1.62996470	     -2.33557161	     -7.49992052	    -28.87050255	      0.33536135	      4.99794195	     43.99974692	     14.81084434	     68.49332236	    118.63946366	     93.74966484	     57.29667706	      9.91599316	     76.34101705	    130.64881425	     71.94634450
      1.96666670	      1.76783995	     -8.71299638	      9.82466241	      0.72516984	      1.00428865	     -0.12353188	     38.19847929	      2.90645807	      5.12456734	     18.76243530	      0.32746627	     -5.97186175	     -1.22644279	     -7.49992177	     13.38386625	     -1.20463046	     -3.21985464	     25.26748039	      0.44100073	      2.49211107	     -2.53738924	     -7.49992177	    -29.24439974	      0.42426563	      4.99083086	     44.29714967	     14.66511898	     68.19109019	    118.63904012	     93.74291981	     57.62614728	      9.88497259	     76.51081914	    130.80899993	     72.00809410
      1.98333330	      1.21563512	     -8.87018501	      9.88500331	      0.72560319	      1.00384746	     -0.12354774	     39.34558174	      3.09003811	      4.80811264	     19.04339428	      0.33236993	     -5.77121210	     -0.84687766	     -7.49992956	     14.64566195	     -1.39017429	     -3.20467078	     26.53924520	      0.46319721	      3.68234751	     -2.59310759	     -7.49992956	    -29.14452885	      0.56977391	      4.92464703	     44.10790153	     14.63342716	     67.90909174	    118.22412903	     91.83278901	     57.37545909	      9.63117778	     76.70343736	    130.88275262	     71.12054355
      2.00000000	      1.17791761	     -9.06851624	     10.19649013	      0.72029577	      1.00101485	     -0.12147632	     39.90461538	      3.24846576	      4.39000852	     18.72822494	      0.32686919	     -5.48672109	     -0.69291463	     -7.49993180	     15.66786443	     -1.75025943	     -3.30341634	     27.94525978	      0.48773679	      5.67066629	     -1.45991073	     -7.49993180	    -30.07577407	      0.62316390	      4.96197465	     44.60525947	     14.65794085	     68.08981323	    118.74290089	     91.92802695	     58.60653235	      9.94296497	     77.59383966	    130.98262991	     70.94956515
      2.01666670	      1.04299111	     -9.14158553	     10.10828940	      0.72029196	      0.99803094	     -0.12118213	     40.69145020	      3.55017669	      4.06643531	     18.63864951	      0.32530580	     -5.58965208	     -1.15333421	     -7.49993368	     16.90494382	     -2.07765544	     -3.72638029	     29.74463469	      0.51914181	      7.13849934	     -0.69454978	     -7.49993368	    -30.66023833	      0.43942763	      5.09447882	     44.57588774	     14.71148686	     68.02555950	    119.00167960	     92.56571446	     59.04995765	     10.03380921	     78.10231211	    130.92691796	     71.27633257
